<?xml version="1.0" standalone="no"?>
<!DOCTYPE svg PUBLIC "-//W3C//DTD SVG 20010904//EN"
 "http://www.w3.org/TR/2001/REC-SVG-20010904/DTD/svg10.dtd">
<svg version="1.0" xmlns="http://www.w3.org/2000/svg"
 width="700.000000pt" height="700.000000pt" viewBox="0 0 700.000000 700.000000"
 preserveAspectRatio="xMidYMid meet">
<metadata>
Created by potrace 1.11, written by Peter Selinger 2001-2013
</metadata>
<g transform="translate(0.000000,700.000000) scale(0.100000,-0.100000)"
fill="#000000" stroke="none">
<path d="M3275 6709 c-126 -82 -315 -206 -420 -274 -104 -68 -235 -153 -290
-189 -55 -35 -100 -70 -99 -78 1 -11 159 -244 184 -271 4 -5 200 129 435 297
l427 305 42 -28 c22 -16 214 -153 426 -304 211 -152 388 -273 392 -271 7 5
140 193 180 255 l17 27 -87 55 c-48 31 -145 94 -217 141 -71 46 -182 118 -245
159 -63 41 -187 122 -275 179 -174 113 -230 148 -236 148 -2 -1 -107 -68 -234
-151z"/>
<path d="M3475 5903 c-329 -28 -572 -184 -725 -468 -98 -180 -120 -431 -58
-635 42 -137 115 -259 213 -355 84 -83 118 -109 205 -154 149 -78 233 -96 425
-95 129 1 148 4 235 33 52 18 123 47 156 66 205 115 363 318 415 535 20 84 24
115 23 220 0 128 -7 169 -40 268 -103 311 -379 536 -704 577 -61 8 -109 11
-145 8z"/>
<path d="M5980 5142 c0 -4 -8 -17 -18 -28 -29 -32 -172 -223 -178 -237 -3 -8
51 -55 143 -122 81 -61 153 -113 158 -118 11 -9 488 -361 519 -383 19 -13 19
-15 -7 -91 -14 -43 -53 -163 -86 -268 -33 -104 -91 -290 -130 -413 -39 -122
-71 -228 -71 -235 0 -7 53 -28 128 -51 70 -21 144 -44 165 -51 20 -7 37 -11
37 -9 0 2 16 63 36 136 20 73 38 142 40 152 2 10 8 33 14 50 5 17 21 74 34
126 14 52 31 120 40 150 8 30 46 174 86 319 39 145 73 267 75 272 5 6 -39 45
-201 176 -21 17 -131 106 -244 198 -113 91 -212 171 -220 178 -8 7 -84 67
-168 135 -83 68 -152 119 -152 114z"/>
<path d="M659 4839 c-206 -167 -421 -341 -479 -387 -58 -47 -108 -88 -112 -91
-8 -7 14 -100 102 -421 33 -124 63 -232 65 -240 11 -50 149 -556 152 -559 2
-3 77 18 168 45 150 44 164 51 159 69 -10 35 -154 492 -198 630 -7 22 -23 74
-36 115 -13 41 -34 106 -47 143 -13 38 -23 76 -23 85 0 11 41 48 103 93 179
133 518 384 630 467 l108 80 -101 133 c-55 74 -105 135 -109 137 -5 2 -177
-133 -382 -299z"/>
<path d="M1688 4645 c-1 -1 -24 -6 -49 -9 -145 -19 -317 -107 -443 -225 -381
-360 -345 -990 74 -1301 279 -206 639 -231 938 -64 68 39 87 52 165 124 167
152 272 393 270 620 -2 414 -288 760 -698 846 -32 6 -251 15 -257 9z"/>
<path d="M5138 4645 c-1 -2 -23 -6 -48 -10 -62 -8 -163 -42 -235 -78 -244
-121 -425 -371 -465 -641 -8 -59 -6 -230 3 -271 36 -153 70 -235 142 -339 298
-433 913 -496 1293 -132 409 391 336 1058 -149 1351 -74 45 -204 96 -279 110
-38 7 -256 16 -262 10z"/>
<path d="M2360 2617 c-3 -3 -28 -7 -55 -10 -28 -3 -86 -17 -130 -32 -255 -85
-454 -284 -540 -538 -35 -105 -37 -120 -40 -257 -4 -141 9 -219 54 -330 117
-286 360 -481 671 -535 56 -10 213 -7 280 5 169 31 325 114 451 239 101 102
177 227 213 353 92 314 13 627 -215 857 -154 155 -363 244 -586 250 -54 1
-101 0 -103 -2z"/>
<path d="M4417 2604 c-325 -64 -587 -311 -668 -631 -27 -106 -31 -273 -9 -378
56 -270 235 -495 482 -609 314 -145 689 -85 939 152 209 197 302 458 265 747
-5 43 -16 88 -43 180 -13 44 -88 173 -133 230 -124 156 -309 269 -505 311 -62
13 -261 12 -328 -2z"/>
<path d="M1220 1573 c-8 -3 -73 -25 -145 -50 -71 -25 -133 -48 -138 -52 -4 -4
8 -48 27 -97 18 -49 82 -215 141 -369 58 -154 110 -289 115 -300 5 -11 28 -69
51 -130 82 -217 102 -270 108 -277 3 -3 69 -9 146 -13 171 -8 260 -12 390 -19
55 -3 150 -8 210 -11 61 -4 142 -8 180 -10 39 -3 130 -7 203 -10 l132 -6 0 78
c1 43 2 120 3 172 1 55 -2 95 -8 97 -5 2 -241 5 -523 7 -281 2 -515 7 -518 10
-4 4 -80 226 -170 494 -100 303 -167 489 -176 490 -7 1 -20 -1 -28 -4z"/>
<path d="M5762 1563 c-5 -10 -80 -232 -167 -493 -87 -261 -159 -477 -161 -479
-4 -4 -422 -9 -827 -10 l-227 -1 4 -167 c3 -93 5 -172 5 -176 1 -8 157 -4 341
8 63 4 145 9 380 21 206 11 243 13 385 19 87 4 144 11 151 18 6 7 33 73 62
147 28 74 97 254 153 400 213 555 237 621 226 625 -139 50 -303 105 -309 105
-4 0 -11 -8 -16 -17z"/>
</g>
</svg>
