<?xml version="1.0" standalone="no"?>
<!DOCTYPE svg PUBLIC "-//W3C//DTD SVG 20010904//EN"
 "http://www.w3.org/TR/2001/REC-SVG-20010904/DTD/svg10.dtd">
<svg version="1.0" xmlns="http://www.w3.org/2000/svg"
 width="700.000000pt" height="700.000000pt" viewBox="0 0 700.000000 700.000000"
 preserveAspectRatio="xMidYMid meet">
<metadata>
Created by potrace 1.11, written by Peter Selinger 2001-2013
</metadata>
<g transform="translate(0.000000,700.000000) scale(0.100000,-0.100000)"
fill="#000000" stroke="none">
<path d="M3298 6996 c-1 -2 -41 -6 -88 -10 -100 -7 -225 -22 -295 -36 -27 -5
-61 -12 -75 -14 -189 -35 -486 -120 -625 -181 -16 -7 -55 -23 -85 -35 -247
-100 -656 -348 -841 -510 -10 -8 -42 -35 -73 -60 -54 -44 -300 -289 -364 -362
-112 -130 -288 -376 -379 -533 -160 -275 -331 -704 -379 -950 -2 -11 -6 -31
-9 -45 -33 -148 -61 -330 -73 -470 -9 -111 -8 -504 1 -600 37 -360 114 -678
239 -990 52 -129 168 -368 213 -439 14 -23 25 -43 25 -47 0 -13 206 -307 287
-409 110 -139 385 -414 528 -529 183 -146 382 -276 580 -378 85 -44 136 -68
290 -137 199 -89 635 -206 847 -227 35 -3 66 -8 69 -10 15 -9 234 -19 414 -19
183 0 335 8 425 21 358 53 613 121 900 238 958 394 1697 1200 2009 2191 58
186 111 422 126 565 4 30 8 61 11 68 24 74 24 781 0 821 -2 3 -7 33 -10 66 -3
33 -8 69 -10 80 -2 11 -11 61 -21 110 -153 819 -628 1587 -1304 2109 -92 71
-307 216 -320 216 -5 0 -11 3 -13 8 -8 19 -319 176 -472 239 -286 118 -621
205 -916 238 -30 4 -68 8 -85 11 -35 5 -521 14 -527 10z m522 -299 c14 -3 50
-8 80 -12 101 -12 124 -15 249 -41 200 -42 441 -116 591 -181 472 -207 833
-467 1167 -842 121 -136 343 -439 343 -470 0 -5 3 -11 8 -13 21 -9 181 -336
237 -483 21 -55 41 -109 46 -120 22 -52 84 -284 109 -410 14 -67 37 -223 47
-315 10 -97 10 -535 0 -625 -66 -564 -228 -1015 -528 -1466 -346 -520 -837
-927 -1414 -1174 -227 -97 -554 -191 -774 -221 -25 -3 -56 -7 -68 -9 -177 -27
-677 -27 -820 -1 -10 2 -43 7 -73 11 -30 4 -64 9 -75 11 -11 2 -33 7 -50 9
-171 30 -454 117 -649 200 -371 158 -682 365 -971 644 -482 466 -792 1034
-924 1687 -47 236 -56 339 -56 639 0 203 5 308 20 395 2 14 11 72 20 129 18
119 80 365 123 491 156 455 405 861 739 1203 83 85 227 218 289 267 388 307
801 510 1259 620 135 32 261 56 350 66 33 4 92 10 130 14 72 8 551 5 595 -3z"/>
<path d="M3231 6568 c-143 -25 -148 -27 -251 -60 -319 -105 -539 -312 -576
-542 -10 -69 -2 -395 11 -416 2 -3 6 -33 10 -65 7 -67 61 -344 75 -390 5 -16
21 -70 36 -120 56 -195 154 -419 242 -555 44 -69 145 -194 192 -239 102 -97
238 -176 362 -211 108 -30 105 -31 104 44 -2 59 -4 67 -31 88 -102 79 -157
130 -359 337 -181 184 -207 211 -301 311 -53 56 -25 40 55 -32 26 -24 78 -70
115 -103 38 -33 73 -65 79 -70 6 -6 52 -46 101 -89 117 -103 228 -209 288
-275 26 -29 48 -49 48 -45 1 5 2 96 3 203 l1 193 -105 86 c-107 88 -783 750
-803 787 -6 11 10 1 34 -22 24 -23 53 -50 65 -60 346 -298 621 -548 723 -659
35 -38 69 -72 75 -76 8 -5 11 62 11 239 l0 244 -37 28 c-63 47 -141 114 -217
186 -75 72 -652 650 -661 663 -7 10 35 -24 95 -78 28 -25 84 -74 125 -110 40
-36 119 -105 174 -154 56 -49 137 -121 181 -160 44 -38 139 -130 210 -203
l131 -132 0 230 0 231 -67 51 c-78 60 -718 702 -654 657 21 -15 133 -110 200
-171 136 -122 167 -150 230 -204 39 -33 118 -108 176 -167 59 -60 109 -108
111 -108 2 0 4 216 4 480 l0 480 -55 -2 c-29 -2 -97 -10 -150 -20z"/>
<path d="M3560 6101 l0 -491 37 42 c50 58 175 181 253 248 93 81 91 79 175
155 43 39 83 75 89 80 271 242 235 199 -201 -244 -111 -113 -236 -232 -278
-265 l-75 -59 0 -230 0 -231 133 135 c72 75 188 184 257 244 69 60 130 113
135 119 6 7 48 45 95 85 47 41 87 77 90 80 3 3 37 33 75 66 39 33 72 62 75 65
3 3 19 16 35 30 46 38 -123 -136 -420 -430 -249 -247 -338 -329 -437 -404
l-38 -28 0 -250 0 -251 77 83 c108 114 179 182 403 380 107 95 211 187 230
204 19 17 67 58 105 91 39 33 72 62 75 65 3 3 14 11 25 19 11 8 -146 -152
-349 -355 -228 -228 -406 -398 -467 -444 l-98 -75 0 -210 -1 -210 31 35 c82
93 173 182 324 315 44 38 82 72 85 75 3 3 43 39 90 80 46 40 97 85 114 99 16
14 34 31 40 36 92 81 40 22 -199 -224 -256 -263 -343 -347 -417 -404 l-68 -52
0 -66 0 -66 54 12 c197 46 373 158 496 316 19 24 40 50 47 57 57 59 205 342
258 492 63 179 121 406 145 570 6 41 13 86 16 100 2 14 6 48 9 75 4 28 8 68
11 90 6 56 5 273 -2 315 -54 323 -448 574 -966 616 l-68 6 0 -491z"/>
<path d="M2107 4301 l-27 -50 82 -53 c91 -59 260 -167 285 -183 9 -5 53 -33
97 -61 176 -111 410 -234 445 -234 24 0 57 41 66 81 6 27 2 35 -26 60 -19 15
-38 28 -42 29 -5 0 -23 11 -40 24 -44 33 -215 133 -317 185 -47 24 -89 47 -95
51 -20 14 -383 200 -392 200 -4 0 -20 -22 -36 -49z"/>
<path d="M4760 4304 c-47 -25 -167 -88 -268 -140 -302 -157 -536 -301 -547
-335 -7 -21 16 -79 38 -98 10 -8 28 -11 45 -8 24 5 160 74 292 149 49 27 528
329 573 360 l27 20 -27 49 c-16 27 -32 49 -38 49 -5 0 -48 -21 -95 -46z"/>
<path d="M2158 3665 c-2 -1 -37 -6 -78 -9 -311 -28 -705 -145 -1023 -302 -225
-111 -310 -182 -373 -309 -54 -111 -68 -181 -69 -340 0 -193 18 -302 82 -477
30 -84 91 -218 99 -218 3 0 121 67 262 149 141 81 272 157 291 167 18 10 41
24 50 29 9 6 68 39 130 75 l113 65 -84 18 c-46 9 -256 74 -468 143 -370 121
-484 164 -329 123 41 -11 83 -21 94 -23 11 -2 83 -20 160 -39 448 -114 441
-112 585 -168 l80 -30 195 111 c107 61 195 115 195 119 0 4 -6 8 -12 9 -46 3
-349 83 -393 102 -11 5 -159 55 -330 111 -170 56 -314 104 -320 108 -5 3 -14
6 -20 7 -21 4 -90 33 -80 33 6 0 42 -8 80 -18 39 -10 140 -37 225 -60 222 -59
344 -92 580 -158 30 -8 114 -37 186 -64 l132 -49 138 80 c77 44 146 84 154 90
8 5 41 24 74 41 32 16 56 32 53 35 -5 5 -146 40 -200 49 -48 9 -969 316 -963
322 2 3 31 -3 63 -12 32 -9 110 -30 173 -47 63 -16 131 -34 150 -39 19 -5 42
-11 50 -14 89 -23 300 -81 355 -96 39 -11 75 -21 80 -23 27 -6 102 -32 212
-73 l122 -45 159 91 c214 123 206 117 148 125 -86 13 -196 46 -496 147 -162
55 -302 101 -310 104 -33 8 -94 34 -85 34 11 1 238 -55 575 -143 151 -39 220
-61 374 -118 25 -9 36 -7 82 18 30 16 54 32 54 37 0 4 -26 33 -59 66 -135 135
-303 215 -526 252 -59 9 -329 21 -337 14z"/>
<path d="M4630 3663 c-309 -24 -541 -127 -693 -309 -18 -22 -18 -22 38 -54
l56 -32 127 45 c162 57 159 56 402 118 321 81 443 110 447 106 8 -8 -766 -258
-851 -275 l-89 -17 49 -28 c27 -15 76 -43 109 -62 33 -19 93 -53 133 -76 l73
-41 49 21 c124 53 220 84 510 161 102 27 219 59 260 70 258 70 376 100 390 99
8 0 -19 -11 -60 -24 -41 -14 -244 -81 -450 -150 -206 -69 -431 -139 -500 -156
-162 -39 -164 -40 -154 -49 5 -4 34 -21 64 -38 30 -16 121 -69 203 -116 l147
-86 78 31 c107 43 231 83 407 130 502 135 708 189 711 186 7 -6 -870 -299
-933 -312 -15 -3 -73 -16 -128 -29 l-100 -23 40 -24 c22 -14 67 -41 100 -60
33 -18 72 -41 86 -49 14 -8 60 -34 101 -58 l76 -42 93 36 c52 20 114 42 139
50 114 33 752 192 744 185 -8 -7 -676 -233 -729 -246 -11 -3 -60 -14 -109 -25
-48 -10 -90 -20 -92 -22 -3 -4 152 -97 236 -142 19 -10 47 -27 62 -37 14 -11
29 -19 32 -19 4 0 39 -20 79 -44 39 -24 137 -80 217 -126 80 -45 159 -91 177
-102 l32 -19 35 74 c45 94 99 257 123 367 13 63 18 127 18 245 -1 138 -4 170
-24 235 -61 199 -146 288 -396 413 -210 106 -550 226 -740 263 -11 2 -42 8
-70 14 -88 18 -99 20 -186 31 -85 10 -272 17 -339 12z"/>
<path d="M3083 3187 c-50 -30 -52 -32 -59 -86 -5 -31 -8 -58 -9 -61 -1 -3 -5
-25 -9 -50 -10 -56 -48 -202 -86 -335 -16 -55 -52 -183 -81 -285 -29 -102 -56
-189 -61 -195 -6 -6 -7 -4 -4 5 3 8 8 26 10 40 7 35 54 270 61 300 2 14 16 84
30 155 38 192 55 260 86 359 16 49 28 91 26 92 -3 3 -328 -184 -341 -196 -5
-5 -19 -68 -31 -142 -20 -118 -53 -262 -99 -428 -8 -30 -24 -91 -36 -135 -29
-110 -119 -440 -135 -495 -16 -55 -19 -33 -4 30 16 67 19 82 25 120 3 19 7 41
10 49 2 8 7 30 10 50 3 20 16 86 29 146 26 123 33 156 41 200 18 103 81 367
110 460 18 60 31 111 29 113 -2 2 -50 -23 -107 -56 -56 -33 -121 -70 -143 -82
-121 -68 -175 -104 -176 -119 0 -9 -2 -25 -4 -36 -2 -11 -7 -42 -10 -69 -8
-56 -6 -48 -35 -179 -12 -55 -35 -147 -52 -205 -16 -59 -32 -116 -34 -127 -2
-11 -22 -87 -45 -170 -22 -82 -50 -184 -61 -225 -11 -41 -29 -104 -38 -140
-41 -150 -19 -28 89 498 28 133 53 256 56 274 3 17 7 34 9 37 2 3 7 22 10 41
3 19 23 92 44 163 22 70 35 127 31 127 -9 0 -370 -207 -383 -220 -5 -5 -11
-24 -13 -42 -5 -54 -43 -238 -63 -308 -10 -36 -44 -155 -75 -265 -71 -253
-107 -376 -111 -372 -1 1 11 70 27 152 33 164 36 178 44 215 6 30 14 66 20
100 2 14 14 70 25 125 12 55 23 110 26 122 2 12 9 34 14 48 5 14 8 25 5 25 -2
0 9 38 25 85 16 47 26 85 23 85 -3 0 -110 -60 -237 -134 -128 -74 -248 -143
-267 -154 -172 -98 -306 -177 -318 -188 -11 -10 -2 -28 56 -106 130 -174 258
-295 415 -389 196 -118 398 -153 552 -95 189 72 512 309 758 559 455 462 632
910 512 1295 -9 28 -19 52 -23 51 -3 0 -29 -15 -58 -32z"/>
<path d="M3834 3164 c-30 -105 -40 -200 -31 -308 9 -115 25 -185 68 -295 39
-100 129 -270 172 -326 4 -5 31 -41 59 -80 176 -239 471 -515 752 -703 217
-145 337 -183 496 -159 60 9 168 40 197 56 10 6 29 15 43 21 28 11 40 18 125
75 78 52 113 82 207 177 85 85 222 261 216 278 -3 10 -830 492 -835 486 -2 -1
8 -36 22 -77 25 -73 58 -208 89 -364 23 -115 23 -115 35 -165 5 -25 12 -58 15
-75 3 -16 17 -86 30 -155 14 -68 23 -126 21 -128 -2 -3 -7 9 -11 24 -3 16 -19
74 -36 129 -33 115 -43 146 -99 345 -22 80 -42 152 -44 160 -18 75 -47 211
-50 235 -12 91 -17 105 -43 118 -15 7 -103 57 -196 111 -92 53 -170 96 -172
94 -2 -2 10 -46 27 -98 38 -120 67 -242 119 -500 23 -113 43 -212 45 -220 2
-8 17 -82 33 -165 17 -82 34 -163 38 -180 4 -16 4 -27 0 -23 -6 5 -47 141 -61
198 -1 8 -37 141 -78 295 -109 402 -133 509 -152 660 -4 28 -12 55 -18 62 -15
14 -411 242 -415 238 -2 -1 11 -49 29 -106 34 -114 66 -248 105 -439 14 -69
27 -134 29 -145 8 -38 25 -120 30 -144 3 -14 13 -68 24 -120 11 -53 23 -112
26 -131 3 -19 10 -51 15 -70 6 -19 10 -42 9 -50 -1 -19 -49 151 -140 490 -101
377 -129 493 -145 600 -9 61 -24 143 -26 146 -4 3 -238 139 -304 175 l-50 28
23 -68 c12 -37 30 -95 38 -127 14 -51 108 -495 120 -564 10 -57 15 -86 19
-105 14 -62 18 -89 13 -85 -10 9 -197 669 -211 744 -3 14 -7 34 -10 44 -8 28
-22 121 -25 163 -1 17 -60 61 -98 73 -20 6 -24 1 -39 -50z"/>
<path d="M3446 2957 c-11 -8 -19 -32 -23 -67 -13 -115 -7 -544 12 -910 2 -30
4 -63 4 -72 1 -14 11 -16 61 -16 36 1 60 6 61 12 0 6 2 43 3 81 16 311 20 446
20 620 0 276 -3 324 -26 347 -21 21 -85 24 -112 5z"/>
</g>
</svg>
