<?xml version="1.0" encoding="utf-8"?>
<!-- Generator: Adobe Illustrator 16.0.0, SVG Export Plug-In . SVG Version: 6.00 Build 0)  -->
<!DOCTYPE svg PUBLIC "-//W3C//DTD SVG 1.1//EN" "http://www.w3.org/Graphics/SVG/1.1/DTD/svg11.dtd">
<svg version="1.1" xmlns="http://www.w3.org/2000/svg" xmlns:xlink="http://www.w3.org/1999/xlink" x="0px" y="0px" width="1000px" height="1000px" viewBox="210 180 550 560">
  <g id="Logo">
    <g>
      <circle fill="#FFFFFF" cx="486" cy="336.328" r="68.605"/>
      <polygon fill="#FFFFFF" points="486,220 417.395,269 401.361,246 486,191 570.639,246 554.605,269"/>
    </g>
    <g>
      <circle fill="#FFFFFF" cx="347.933" cy="436.639" r="68.605"/>
      <polygon fill="#FFFFFF" points="237.299,400.691 262.7,481.082 235.871,489.223 209.718,391.73 288.181,328.23 305.101,350.586"/>
    </g>
    <g>
      <circle fill="#FFFFFF" cx="400.669" cy="598.946" r="68.605"/>
      <polygon fill="#FFFFFF" points="332.294,693.058 416.599,693.741 416.051,721.772 315.248,716.52 279.102,622.274 305.592,613.091"/>
    </g>
    <g>
      <circle fill="#FFFFFF" cx="571.329" cy="598.947" r="68.605"/>
      <polygon fill="#FFFFFF" points="639.705,693.059 666.406,613.091 692.897,622.273 656.752,716.52 555.949,721.773 555.4,693.742"/>
    </g>
    <g>
      <circle fill="#FFFFFF" cx="624.067" cy="436.64" r="68.605"/>
      <polygon fill="#FFFFFF" points="734.701,400.692 666.898,350.587 683.818,328.23 762.281,391.73 736.129,489.223 709.3,481.083"/>
    </g>
  </g>
</svg>
