<svg xmlns="http://www.w3.org/2000/svg" viewBox="0 0 473.06 136.75">
  <defs>
    <style>.cls-1{fill:#fff;}</style>
  </defs>
  <title>Leppävaaran Budoseura</title>
  <g id="Layer_2" data-name="Layer 2">
    <g id="Layer_1-2" data-name="Layer 1">
      <g id="leaf">
        <path class="cls-1" d="M78.77,72.93c1.22-.54,2.46-1,3.71-1.42,1.69-.59,3.45-.94,5.18-1.4l5.2-1.33,5.21-1.28s.07,0,.07,0a.06.06,0,0,1,0,.07L93,69.36,87.93,71c-1.7.55-3.37,1.21-5.11,1.62-1.09.27-2.19.51-3.3.71l7,4c1.59-.69,3.22-1.28,4.85-1.83,2.08-.72,4.23-1.2,6.35-1.78l6.37-1.72,6.38-1.67a.06.06,0,0,1,.08,0s0,.07,0,.08l-6.25,2.12L98,74.7c-2.09.68-4.15,1.47-6.28,2-1.51.4-3,.76-4.55,1.05l8.4,4.85c1.59-.68,3.22-1.27,4.85-1.83,2.08-.71,4.23-1.19,6.35-1.78l6.37-1.72,6.38-1.66a.06.06,0,0,1,.08,0,.06.06,0,0,1,0,.07l-6.25,2.13L107,79.93c-2.09.68-4.15,1.46-6.28,2-1.51.39-3,.75-4.55,1L104,87.52c1.22-.54,2.46-1,3.71-1.42,1.69-.59,3.45-.94,5.18-1.4l5.2-1.33,5.21-1.28s.06,0,.07,0a.06.06,0,0,1,0,.07L118.29,84l-5.09,1.68c-1.7.55-3.37,1.2-5.11,1.62-1.09.27-2.19.51-3.3.7l16.51,9.53c5.08-9.76,4.84-20.3-1.31-24.12a34.06,34.06,0,0,0-3.31-1.9c-5.14-2.7-29.67-12.94-40.15.18Z"/>
        <path class="cls-1" d="M98.5,110.58c6.41,3.43,15.68-1.67,21.6-11L103.49,90c.41,1.1.76,2.22,1.09,3.34.51,1.72.78,3.49,1.15,5.24l1.09,5.25,1,5.27a.06.06,0,0,1,0,.07.07.07,0,0,1-.07,0l-1.5-5.16-1.45-5.16c-.47-1.73-1-3.43-1.38-5.19-.26-1.33-.49-2.67-.64-4L94.89,85c.54,1.52,1,3.06,1.41,4.6.59,2.12,1,4.29,1.4,6.44L99,102.52l1.28,6.48s0,.06,0,.07a.06.06,0,0,1-.06,0l-1.76-6.36-1.69-6.38c-.55-2.12-1.21-4.23-1.63-6.39-.34-1.72-.65-3.46-.85-5.22L85.84,79.8c.54,1.52,1,3,1.41,4.59.59,2.12,1,4.3,1.4,6.45L90,97.3l1.28,6.47a.05.05,0,0,1,0,.07.06.06,0,0,1-.07,0L89.4,97.44l-1.69-6.38c-.55-2.13-1.21-4.23-1.63-6.39-.34-1.73-.65-3.47-.85-5.23l-7-4c.41,1.1.77,2.22,1.09,3.34.51,1.72.78,3.49,1.15,5.24l1.09,5.25,1,5.27a.08.08,0,0,1,0,.07.06.06,0,0,1-.07,0L81,89.37l-1.45-5.16c-.47-1.73-1-3.43-1.38-5.18-.26-1.34-.49-2.68-.63-4l-2.19-1.27c-6.24,15.66,15,31.84,19.88,35A35.62,35.62,0,0,0,98.5,110.58Z"/>
      </g>
      <path id="tsuba_hole" data-name="tsuba hole" class="cls-1" d="M59.43,63.21c-.34.63-.92,1.13-1.42.87a68.54,68.54,0,0,1-6.4-3.39c-1.9-1.2-9.14-5.72-11-7l.58-1,.59-1c2,1,9.56,5,11.56,6.05a68.32,68.32,0,0,1,6.13,3.84c.48.31.34,1.06,0,1.67Z"/>
      <g id="leaf-2" data-name="leaf">
        <path class="cls-1" d="M59.23,75.1c-.14,1.32-.37,2.63-.62,3.93-.34,1.75-.91,3.45-1.38,5.18l-1.45,5.16-1.5,5.16a.06.06,0,1,1-.11,0l1-5.27L56.29,84c.37-1.75.64-3.52,1.15-5.24.31-1.08.65-2.15,1-3.21l-7,4c-.2,1.72-.5,3.42-.84,5.11-.42,2.16-1.07,4.26-1.63,6.39l-1.69,6.38L45.6,103.8a.07.07,0,0,1-.08,0,.06.06,0,0,1,0-.07l1.28-6.47,1.34-6.46c.45-2.15.81-4.33,1.4-6.45.41-1.49.85-3,1.36-4.46l-8.4,4.85c-.2,1.72-.5,3.42-.84,5.11-.42,2.16-1.07,4.27-1.63,6.39l-1.69,6.38L36.55,109a.07.07,0,0,1-.08,0,.06.06,0,0,1,0-.07l1.28-6.48,1.34-6.46c.45-2.15.81-4.32,1.4-6.44.41-1.5.85-3,1.36-4.46L34,89.69c-.14,1.32-.36,2.63-.62,3.92C33,95.37,32.43,97.07,32,98.8L30.52,104,29,109.12s0,0-.07,0a.06.06,0,0,1,0-.07l1-5.27L31,98.57c.37-1.75.64-3.53,1.15-5.24.31-1.08.65-2.15,1-3.21L16.7,99.65c5.92,9.29,15.16,14.35,21.55,10.93a35.62,35.62,0,0,0,3.3-1.91c4.91-3.1,26-19.23,19.92-34.86Z"/>
        <path class="cls-1" d="M16.77,73.36c-6.18,3.84-6.4,14.42-1.28,24.21L32.1,88c-1.16-.2-2.3-.45-3.44-.73-1.74-.42-3.41-1.07-5.11-1.62L18.46,84l-5.08-1.74a.07.07,0,0,1,0-.08.06.06,0,0,1,.07,0l5.22,1.28,5.19,1.33c1.73.46,3.49.81,5.18,1.4,1.29.44,2.57.91,3.82,1.47L40.7,83c-1.58-.3-3.14-.68-4.68-1.08-2.14-.55-4.2-1.33-6.29-2l-6.26-2.07-6.25-2.13a.05.05,0,0,1,0-.08.05.05,0,0,1,.07,0l6.38,1.66L30,79c2.12.59,4.27,1.07,6.35,1.78,1.67.57,3.33,1.18,5,1.88l8.44-4.87c-1.58-.3-3.14-.67-4.68-1.08-2.13-.54-4.2-1.33-6.29-2l-6.26-2.07-6.25-2.12a.07.07,0,0,1,0-.08.06.06,0,0,1,.07,0l6.38,1.67,6.37,1.72c2.12.58,4.27,1.06,6.35,1.78,1.67.57,3.33,1.17,5,1.87l7-4c-1.16-.2-2.3-.45-3.44-.73-1.74-.41-3.41-1.07-5.11-1.62l-5.1-1.68-5.07-1.74a.07.07,0,0,1,0-.08.07.07,0,0,1,.07,0l5.21,1.28,5.2,1.33c1.73.46,3.49.81,5.18,1.4,1.29.44,2.56.91,3.82,1.47l2.19-1.27c-10.45-13.22-35.06-3-40.21-.25A33.21,33.21,0,0,0,16.77,73.36Z"/>
      </g>
      <path id="tsuba_hole-2" data-name="tsuba hole" class="cls-1" d="M77.32,63.21c-.38-.61-.52-1.36,0-1.67a68.32,68.32,0,0,1,6.13-3.84c2-1.05,9.53-5.06,11.57-6l.58,1,.59,1c-1.86,1.27-9.11,5.78-11,7a68.54,68.54,0,0,1-6.4,3.39c-.5.26-1.08-.24-1.42-.87Z"/>
      <g id="leaf-3" data-name="leaf">
        <path class="cls-1" d="M67.12,57.1C66.05,56.31,65,55.46,64,54.59c-1.35-1.17-2.53-2.51-3.79-3.79L56.49,47l-3.72-3.88a.05.05,0,0,1,0-.08.06.06,0,0,1,.08,0l4,3.52,4,3.58c1.32,1.19,2.73,2.31,4,3.61.77.81,1.53,1.64,2.25,2.51v-8c-1.39-1-2.71-2.15-4-3.28-1.67-1.45-3.16-3.07-4.72-4.61l-4.68-4.66-4.63-4.69a.06.06,0,0,1,0-.09.06.06,0,0,1,.08,0l5,4.34,4.92,4.39c1.64,1.47,3.34,2.87,4.88,4.44,1.09,1.1,2.16,2.23,3.18,3.41v-9.7c-1.39-1-2.71-2.15-4-3.28C61.45,33,60,31.38,58.4,29.84l-4.68-4.66-4.63-4.69a.06.06,0,0,1,0-.09.06.06,0,0,1,.08,0l5,4.34,4.92,4.39C60.7,30.6,62.4,32,63.94,33.57,65,34.67,66.1,35.8,67.12,37V27.92c-1.07-.79-2.09-1.64-3.09-2.5-1.35-1.17-2.53-2.52-3.79-3.79l-3.75-3.84-3.72-3.87a.06.06,0,0,1,0-.09.06.06,0,0,1,.08,0l4,3.53,4,3.57c1.32,1.19,2.73,2.32,4,3.61.77.81,1.53,1.64,2.25,2.51V8c-11,.48-20,5.95-20.23,13.19a34.92,34.92,0,0,0,0,3.82c.23,5.8,3.64,32.16,20.23,34.68Z"/>
        <path class="cls-1" d="M89.86,21.18C89.63,13.92,80.58,8.44,69.54,8V27.16c.75-.91,1.54-1.77,2.34-2.62,1.24-1.29,2.64-2.42,4-3.61l4-3.57,4-3.53a.06.06,0,0,1,.09,0,.06.06,0,0,1,0,.08l-3.71,3.87-3.76,3.84c-1.25,1.27-2.44,2.62-3.79,3.79-1,.89-2.07,1.76-3.18,2.57v9.09c1-1.21,2.15-2.37,3.27-3.51,1.54-1.57,3.25-3,4.88-4.44l4.93-4.39,5-4.34a.08.08,0,0,1,.09,0,.06.06,0,0,1,0,.09L83,25.18l-4.68,4.66c-1.56,1.54-3,3.16-4.71,4.61-1.33,1.16-2.68,2.29-4.1,3.35v9.74c1-1.22,2.15-2.38,3.27-3.52,1.54-1.57,3.25-3,4.88-4.44l4.93-4.39,5-4.34a.08.08,0,0,1,.09,0,.06.06,0,0,1,0,.09L83,35.63l-4.68,4.66c-1.56,1.54-3,3.16-4.71,4.61-1.33,1.16-2.68,2.29-4.1,3.35v8.09c.75-.91,1.54-1.77,2.34-2.62,1.24-1.3,2.64-2.42,4-3.61l4-3.58,4-3.52A.07.07,0,0,1,84,43a.06.06,0,0,1,0,.08L80.27,47,76.51,50.8c-1.25,1.28-2.44,2.62-3.79,3.79-1,.9-2.07,1.77-3.18,2.57v2.53C86.21,57.26,89.63,30.81,89.86,25A34.92,34.92,0,0,0,89.86,21.18Z"/>
      </g>
      <path id="tsuba_hole-3" data-name="tsuba hole" class="cls-1" d="M68.38,78.7c.71,0,1.44.23,1.46.8a67.2,67.2,0,0,1,.26,7.23c-.09,2.26-.38,10.78-.55,13H67.19c-.18-2.26-.45-10.78-.54-13a67.2,67.2,0,0,1,.26-7.23c0-.57.75-.82,1.47-.8Z"/>
      <g id="circle">
        <path class="cls-1" d="M68.38,136.75a68.38,68.38,0,1,1,68.37-68.38A68.45,68.45,0,0,1,68.38,136.75Zm0-131.12a62.75,62.75,0,1,0,62.74,62.74A62.82,62.82,0,0,0,68.38,5.63Z"/>
      </g>
      <path class="cls-1" d="M175.44,63.67V37h5.71V58.67h11.28v5Z"/>
      <path class="cls-1" d="M197.74,63.67V37h18.88v5h-13.2v5.59h12.92v5H203.42v6.08h13.2v5Z"/>
      <path class="cls-1" d="M223.68,63.67V37h12.48c5.8,0,9,3.92,9,8.59s-3.2,8.56-9,8.56h-6.8v9.52Zm15.64-18.08c0-2.23-1.72-3.59-4-3.59h-6v7.15h6C237.6,49.15,239.32,47.79,239.32,45.59Z"/>
      <path class="cls-1" d="M250.43,63.67V37h12.48c5.8,0,9,3.92,9,8.59s-3.2,8.56-9,8.56h-6.8v9.52Zm15.64-18.08c0-2.23-1.72-3.59-4-3.59h-6v7.15h6C264.35,49.15,266.07,47.79,266.07,45.59Z"/>
      <path class="cls-1" d="M294,63.67l-1.68-4.52H280.88l-1.68,4.52h-6.44L283,37h7.12l10.28,26.67ZM282.4,35a2.72,2.72,0,1,1,2.72-2.72A2.7,2.7,0,0,1,282.4,35Zm4.2,7.64-4.16,11.47h8.32ZM290.84,35a2.72,2.72,0,1,1,2.72-2.72A2.72,2.72,0,0,1,290.84,35Z"/>
      <path class="cls-1" d="M310.49,63.67,300.21,37h6.44l7.4,20.47L321.45,37h6.44L317.61,63.67Z"/>
      <path class="cls-1" d="M348.9,63.67l-1.68-4.52H335.78l-1.68,4.52h-6.44L337.94,37h7.12l10.27,26.67Zm-7.4-21-4.16,11.47h8.32Z"/>
      <path class="cls-1" d="M379.94,63.67l-1.68-4.52H366.82l-1.68,4.52H358.7L369,37h7.12l10.28,26.67Zm-7.4-21-4.16,11.47h8.32Z"/>
      <path class="cls-1" d="M406.13,63.67l-5.23-9.48h-4.16v9.48h-5.68V37h12.47c5.56,0,9,3.64,9,8.59a7.72,7.72,0,0,1-5.88,7.92l6,10.16Zm.56-18.12c0-2.19-1.72-3.55-3.95-3.55h-6v7.19h6C405,49.19,406.69,47.83,406.69,45.55Z"/>
      <path class="cls-1" d="M438.06,63.67l-1.68-4.52H424.94l-1.68,4.52h-6.44L427.1,37h7.12L444.5,63.67Zm-7.4-21L426.5,54.15h8.32Z"/>
      <path class="cls-1" d="M467.58,63.67,454.86,46.28V63.67h-5.68V37H455l12.36,16.75V37h5.68V63.67Z"/>
      <path class="cls-1" d="M175.68,106.67V80h14c5.08,0,7.68,3.24,7.68,6.8a6,6,0,0,1-4.6,6.11,6.41,6.41,0,0,1,5.12,6.52c0,4-2.64,7.24-7.76,7.24ZM191.59,87.8a2.8,2.8,0,0,0-3.12-2.8h-7.12v5.59h7.12C190.39,90.59,191.59,89.51,191.59,87.8Zm.52,10.83c0-1.68-1.2-3-3.4-3h-7.36v6.08h7.36C190.83,101.67,192.11,100.55,192.11,98.63Z"/>
      <path class="cls-1" d="M204.26,96V80H210V95.83c0,3.72,2.16,6.28,6.28,6.28s6.24-2.56,6.24-6.28V80h5.8V96c0,6.6-3.92,11.16-12,11.16S204.26,102.59,204.26,96Z"/>
      <path class="cls-1" d="M235.89,106.67V80h10.52c8.35,0,14.15,5.32,14.15,13.31s-5.8,13.36-14.11,13.36Zm18.87-13.36c0-4.68-2.88-8.31-8.31-8.31h-4.88v16.67h4.84A8,8,0,0,0,254.76,93.31Z"/>
      <path class="cls-1" d="M265.38,93.35c0-8,5.88-13.79,14-13.79s13.91,5.76,13.91,13.79-5.88,13.8-13.91,13.8S265.38,101.39,265.38,93.35Zm22,0c0-5-3.15-8.75-8.07-8.75s-8.12,3.76-8.12,8.75,3.16,8.76,8.12,8.76S287.41,98.31,287.41,93.35Z"/>
      <path class="cls-1" d="M297.3,102.91l3.12-4.44a11.72,11.72,0,0,0,8.48,3.64c3.16,0,4.64-1.4,4.64-3,0-4.64-15.36-1.4-15.36-11.43,0-4.44,3.84-8.12,10.12-8.12a14.84,14.84,0,0,1,10.4,3.72l-3.16,4.24a11.46,11.46,0,0,0-7.76-2.92c-2.4,0-3.76,1-3.76,2.64,0,4.19,15.32,1.35,15.32,11.31,0,4.88-3.52,8.56-10.68,8.56C303.5,107.15,299.82,105.43,297.3,102.91Z"/>
      <path class="cls-1" d="M325.45,106.67V80h18.88v5h-13.2v5.59h12.92v5H331.13v6.08h13.2v5Z"/>
      <path class="cls-1" d="M351.1,96V80h5.76V95.83c0,3.72,2.16,6.28,6.28,6.28s6.23-2.56,6.23-6.28V80h5.8V96c0,6.6-3.92,11.16-12,11.16S351.1,102.59,351.1,96Z"/>
      <path class="cls-1" d="M397.81,106.67l-5.24-9.48h-4.16v9.48h-5.68V80h12.48c5.56,0,9,3.64,9,8.59a7.72,7.72,0,0,1-5.88,7.92l6,10.16Zm.56-18.12c0-2.19-1.72-3.55-4-3.55h-6v7.19h6C396.65,92.19,398.37,90.83,398.37,88.55Z"/>
      <path class="cls-1" d="M429.73,106.67l-1.68-4.52H416.62l-1.68,4.52H408.5L418.78,80h7.12l10.27,26.67Zm-7.39-21-4.16,11.47h8.31Z"/>
    </g>
  </g>
</svg>
