<svg viewBox="0 0 770.29 770.28" xmlns="http://www.w3.org/2000/svg"><g fill="#c30016"><path d="m443.69 410.8c6.87-3 13.87-5.61 20.91-8 9.52-3.31 19.43-5.29 29.17-7.84l29.23-7.54 29.37-7.19a.35.35 0 0 1 .41.25.34.34 0 0 1 -.22.4l-28.6 9.8-28.7 9.47c-9.58 3.12-19 6.79-28.79 9.15-6.14 1.5-12.32 2.86-18.57 3.95l39.24 22.66c9-3.86 18.12-7.17 27.31-10.3 11.71-4 23.83-6.76 35.77-10l35.87-9.71 36-9.38a.33.33 0 0 1 .41.24.34.34 0 0 1 -.21.41l-35.19 12-35.29 11.66c-11.77 3.84-23.38 8.25-35.38 11.33-8.46 2.21-17 4.26-25.6 5.91l47.32 27.32c9-3.85 18.12-7.17 27.31-10.3 11.71-4 23.83-6.75 35.77-10l35.87-9.71 36-9.38a.34.34 0 0 1 .41.25.32.32 0 0 1 -.22.4l-35.18 12-35.31 11.56c-11.77 3.85-23.38 8.25-35.38 11.33-8.46 2.21-17 4.26-25.6 5.91l44.18 25.55c6.87-3 13.87-5.6 20.91-8 9.52-3.31 19.43-5.29 29.17-7.84l29.27-7.51 29.37-7.2a.35.35 0 0 1 .41.25.35.35 0 0 1 -.22.41l-28.6 9.79-28.7 9.48c-9.58 3.11-19 6.79-28.79 9.14-6.14 1.5-12.31 2.86-18.57 3.95l93 53.68c28.62-55 27.29-114.34-7.4-135.85a193.41 193.41 0 0 0 -18.59-10.74c-29-15.23-167.15-72.86-226.16 1z"/><path d="m554.84 622.85c36.08 19.33 88.31-9.38 121.64-62l-93.55-54c2.31 6.22 4.3 12.51 6.15 18.83 2.86 9.67 4.38 19.66 6.47 29.51l6.15 29.59 5.81 29.66a.33.33 0 0 1 -.26.4.34.34 0 0 1 -.4-.24l-8.45-29-8.13-29.11c-2.66-9.71-5.9-19.28-7.79-29.18-1.47-7.52-2.78-15.08-3.58-22.76l-44.39-25.63c3 8.54 5.55 17.19 7.94 25.87 3.33 11.94 5.32 24.19 7.88 36.31l7.55 36.39 7.21 36.51a.33.33 0 0 1 -.26.4.34.34 0 0 1 -.4-.24l-9.86-35.84-9.57-35.97c-3.13-12-6.84-23.83-9.2-36-1.93-9.74-3.65-19.52-4.8-29.44l-47.5-27.43c3 8.54 5.54 17.19 7.93 25.87 3.33 11.94 5.32 24.19 7.88 36.31l7.55 36.38 7.21 36.47a.34.34 0 0 1 -.26.4.36.36 0 0 1 -.4-.25l-9.86-35.84-9.53-35.91c-3.13-12-6.84-23.83-9.2-36-1.93-9.73-3.65-19.52-4.8-29.44l-39.42-22.77c2.31 6.21 4.3 12.5 6.15 18.83 2.86 9.66 4.38 19.65 6.47 29.5l6.15 29.59 5.81 29.67a.34.34 0 0 1 -.26.4.36.36 0 0 1 -.4-.24l-8.45-29-8.13-29.1c-2.66-9.71-5.9-19.29-7.79-29.19-1.47-7.52-2.78-15.07-3.58-22.76l-12.33-7.12c-35.11 88.2 84.28 179.35 112 196.86a192.37 192.37 0 0 0 18.6 10.71z"/><path d="m334.77 356.06c-1.92 3.56-5.19 6.37-8 4.89-11.44-5.56-25.31-12.28-36-19.09s-51.51-32.23-62-39.42l3.3-5.71 3.34-5.78c11.47 5.49 53.85 28.16 65.09 34.06s24 14.53 34.55 21.65c2.69 1.72 1.89 5.95-.23 9.4z"/><path d="m333.65 423c-.8 7.46-2.08 14.8-3.51 22.11-1.9 9.9-5.13 19.48-7.8 29.19l-8.12 29.1-8.46 29a.34.34 0 0 1 -.42.23.34.34 0 0 1 -.24-.39l5.82-29.67 6.14-29.57c2.1-9.85 3.62-19.84 6.48-29.5 1.77-6.07 3.68-12.1 5.87-18.06l-39.25 22.65c-1.15 9.7-2.85 19.28-4.73 28.8-2.36 12.17-6.07 24-9.2 36l-9.53 35.91-9.86 35.84a.34.34 0 0 1 -.42.24.35.35 0 0 1 -.25-.39l7.22-36.47 7.55-36.38c2.56-12.12 4.55-24.37 7.88-36.31 2.32-8.43 4.8-16.83 7.68-25.12l-47.32 27.32c-1.15 9.7-2.85 19.27-4.73 28.8-2.36 12.16-6.07 24-9.2 36l-9.53 35.92-9.86 35.84a.34.34 0 0 1 -.42.23.34.34 0 0 1 -.25-.39l7.22-36.46 7.59-36.37c2.56-12.12 4.55-24.37 7.88-36.31 2.32-8.43 4.8-16.82 7.68-25.12l-44.2 25.52c-.8 7.46-2.08 14.81-3.51 22.12-1.9 9.9-5.13 19.47-7.8 29.18l-8.12 29.11-8.46 29a.33.33 0 0 1 -.42.23.34.34 0 0 1 -.24-.39l5.82-29.66 6.14-29.59c2.1-9.85 3.62-19.84 6.48-29.51 1.77-6.06 3.68-12.1 5.86-18.06l-93 53.68c33.33 52.3 85.37 80.81 121.35 61.53a192.89 192.89 0 0 0 18.54-10.72c27.68-17.47 146.68-108.33 112.21-196.37z"/><path d="m94.44 413.25c-34.79 21.57-36 81.17-7.16 136.32l93.54-54c-6.53-1.11-13-2.52-19.37-4.09-9.8-2.35-19.22-6-28.79-9.14l-28.66-9.49-28.6-9.79a.34.34 0 0 1 .19-.66l29.36 7.19 29.27 7.52c9.75 2.55 19.66 4.53 29.18 7.84 7.24 2.49 14.44 5.13 21.49 8.29l44.39-25.63c-8.89-1.68-17.66-3.79-26.37-6.07-12-3.08-23.61-7.49-35.39-11.33l-35.32-11.65-35.2-11.99a.34.34 0 0 1 -.21-.43.35.35 0 0 1 .41-.22l36 9.38 35.85 9.7c11.94 3.28 24 6 35.77 10 9.39 3.2 18.73 6.6 27.89 10.56l47.51-27.42c-8.89-1.68-17.66-3.8-26.37-6.07-12-3.08-23.61-7.49-35.39-11.33l-35.28-11.66-35.19-12a.33.33 0 0 1 -.21-.43.35.35 0 0 1 .41-.22l36 9.38 35.81 9.77c11.94 3.27 24.05 6 35.77 10 9.39 3.2 18.73 6.6 27.89 10.56l39.46-22.78c-6.53-1.11-13-2.53-19.37-4.09-9.8-2.36-19.22-6-28.79-9.15l-28.7-9.47-28.6-9.8a.34.34 0 0 1 .19-.65l29.37 7.19 29.26 7.52c9.75 2.54 19.66 4.53 29.18 7.84 7.24 2.48 14.44 5.13 21.49 8.28l12.34-7.12c-58.83-74.5-197.47-16.68-226.49-1.43a192 192 0 0 0 -18.56 10.77z"/><path d="m435.51 356.06c-2.12-3.45-2.91-7.68-.22-9.4 10.54-7.12 23.3-15.78 34.55-21.65s53.66-28.5 65.14-34l3.29 5.71 3.34 5.79c-10.49 7.19-51.31 32.55-62 39.34s-24.61 13.54-36.07 19.15c-2.83 1.48-6.1-1.33-8-4.89z"/><path d="m378.09 321.6c-6.06-4.42-11.78-9.2-17.4-14.09-7.62-6.59-14.3-14.18-21.38-21.35l-21.14-21.58-20.91-21.84a.34.34 0 0 1 0-.48.35.35 0 0 1 .46 0l22.78 19.87 22.56 20.11c7.48 6.74 15.37 13 22.31 20.36 4.37 4.57 8.64 9.24 12.71 14.12v-45.33c-7.83-5.85-15.27-12.1-22.57-18.5-9.36-8.13-17.77-17.26-26.58-26l-26.33-26.18-26.1-26.46a.34.34 0 0 1 0-.48.34.34 0 0 1 .46 0l28 24.48 27.71 24.75c9.21 8.28 18.83 16.12 27.5 25 6.14 6.22 12.18 12.57 17.92 19.22v-54.7c-7.83-5.84-15.27-12.1-22.57-18.49-9.36-8.13-17.77-17.26-26.58-26l-26.34-26.18-26.1-26.46a.34.34 0 0 1 0-.48.34.34 0 0 1 .46 0l28 24.49 27.74 24.73c9.21 8.27 18.83 16.12 27.5 25 6.14 6.23 12.18 12.57 17.92 19.22v-51c-6.06-4.43-11.78-9.21-17.4-14.1-7.62-6.59-14.3-14.18-21.38-21.34l-21.14-21.59-20.94-21.93a.34.34 0 0 1 0-.48.35.35 0 0 1 .46 0l22.78 19.87 22.56 20.12c7.48 6.73 15.37 13 22.31 20.36 4.37 4.56 8.64 9.23 12.71 14.11v-107.37c-62 2.72-112.67 33.54-114 74.34a191.8 191.8 0 0 0 0 21.47c1.3 32.7 20.48 181.18 114 195.35z"/><path d="m506.16 119.33c-1.3-40.91-52.28-71.8-114.49-74.36v108.03c4.23-5.1 8.68-10 13.24-14.73 6.94-7.32 14.83-13.63 22.31-20.36l22.55-20.12 22.79-19.89a.35.35 0 0 1 .48 0 .35.35 0 0 1 0 .46l-20.91 21.84-21.13 21.62c-7.07 7.16-13.75 14.75-21.37 21.34-5.78 5-11.67 10-17.93 14.47v51.26c5.9-6.87 12.12-13.4 18.44-19.81 8.68-8.85 18.29-16.7 27.51-25l27.74-24.73 28-24.49a.34.34 0 0 1 .48 0 .35.35 0 0 1 0 .46l-26.11 26.46-26.34 26.21c-8.81 8.71-17.21 17.84-26.57 26-7.47 6.53-15.08 12.91-23.1 18.87v54.86c5.9-6.87 12.12-13.4 18.44-19.81 8.68-8.86 18.29-16.7 27.51-25l27.74-24.73 28-24.48a.35.35 0 0 1 .48 0 .35.35 0 0 1 0 .46l-26.11 26.46-26.34 26.22c-8.81 8.7-17.21 17.83-26.57 26-7.47 6.54-15.08 12.92-23.1 18.88v45.56c4.23-5.1 8.68-10 13.24-14.74 6.94-7.31 14.83-13.62 22.31-20.36l22.55-20.11 22.79-19.87a.35.35 0 0 1 .48 0 .35.35 0 0 1 0 .46l-20.91 21.84-21.26 21.66c-7.07 7.17-13.75 14.76-21.37 21.35-5.78 5-11.67 9.94-17.93 14.47v14.25c93.94-13.7 113.19-162.67 114.49-195.43a194.62 194.62 0 0 0 -.03-21.47z"/><path d="m385.14 443.3c4.05-.11 8.11 1.31 8.25 4.51.9 12.68 2 28.06 1.48 40.74s-2.15 60.72-3.13 73.41h-13.28c-1-12.69-2.53-60.72-3-73.41s.58-28.06 1.48-40.74c.14-3.2 4.21-4.62 8.25-4.51z"/><path d="m385.14 770.28c-212.36 0-385.14-172.77-385.14-385.14s172.78-385.14 385.14-385.14 385.15 172.77 385.15 385.14-172.78 385.14-385.15 385.14zm0-738.58c-194.89 0-353.44 158.55-353.44 353.44s158.55 353.44 353.44 353.44 353.45-158.58 353.45-353.44-158.59-353.44-353.45-353.44z"/></g></svg>
